<svg xmlns="http://www.w3.org/2000/svg" width="512" height="512" viewBox="0 0 512 512">
  <path id="paper" fill="#db2777" fill-rule="evenodd" d="M452.6,470.611c-42.149,37.618-110.446,41.347-168.171,41.347H227.162c-57.725,0-126.021-3.729-168.171-41.347C9.458,426.4.31,350.42,0.31,281.934V226.849c0-67.857,8.576-140.589,57.32-184.762,42.314-38.346,111.184-42,169.532-42h57.269c58.349,0,127.217,3.651,169.532,42,48.744,44.173,57.82,116.9,57.82,184.762v55.085C511.783,350.42,502.136,426.4,452.6,470.611Z"/>
  <path id="icon" fill="#fff" fill-rule="evenodd" d="M409.327,307.385c19.813,25.988-17.657,48.069-36.566,18.918-14.839-22.877-3.2-57.34-3.2-70.3A115.514,115.514,0,1,0,254.049,371.513c13.358,0,34.507-3.531,38.54-13.939,0,0,.444-82.316.444-101.755-0.113-21.169-17.788-38.3-38.984-38.3a38.5,38.5,0,0,0-.108,77s9.871,5.031,9.871,19.239c0,20.394-23.412,18.231-31.48,16.029a76.983,76.983,0,1,1,98.726-73.822c0,19.067.137,118.257,0.137,118.257,0,10.606-14.756,21.892-17.348,23.375,0,0-11,12.422-59.8,12.422A154.018,154.018,0,1,1,408.067,256C408.067,276.569,398.324,292.954,409.327,307.385Z"/>
</svg>
