<svg xmlns="http://www.w3.org/2000/svg" width="33" height="32" viewBox="0 0 33 32">
  <path fill="#db2777" fill-rule="evenodd" d="M32.235,21.338c2.338,4.052-2.3,5.149-4.058,1.913C26.825,20.762,28,17.347,28,16A12,12,0,1,0,16,28c1.388,0,3.588-.311,3.952-1.059,0,0,.046-8.94.046-10.959A4,4,0,1,0,15.989,20a2.2,2.2,0,0,1,1.025,2c0,2.119-2.432,1.894-3.27,1.665A8,8,0,1,1,24,16c0,1.981.014,12.285,0.014,12.285a3.961,3.961,0,0,1-1.8,2.428S21.07,32,16,32A16,16,0,1,1,32,16C32,18.137,31.381,19.859,32.235,21.338Z"/>
</svg>
